<?xml version="1.0" encoding="UTF-8"?>
<svg id="Layer_1" xmlns="http://www.w3.org/2000/svg" version="1.1" viewBox="0 0 3034 853.1">
  <!-- Generator: Adobe Illustrator 29.0.1, SVG Export Plug-In . SVG Version: 2.1.0 Build 192)  -->
  <defs>
    <style>
      .st0 {
        fill: #fff;
      }
    </style>
  </defs>
  <path class="st0" d="M1549.4,114.7c1.2,1.1,2.5,2.3,5,4.6,0-9.1.2-16.2-.2-23.3,0-1.6-2.1-3.1-3.3-4.7-.8,1.6-2.2,3.2-2.3,4.8,0,5.8.3,11.7.7,18.6M1563.5,287.8c-12.6-.1-16,2-16,14.4,0,109.1.1-14.6,0,94.5,0,9.1-.9,9.6-9.5,8.9-.1-2.3-.3-4.7-.3-7.1,0-110.5.2,11.5,0-99,0-5.1,0-10-2.4-14.4-6.5-12-17.9-9.4-26.8-3.7-5,3.2-10.4,5.8-15.9,8.1-4.5,1.9-9.3,3-13.7,4.3-2.8-1.3-5.8-2.8-9.7-4.7,1.5-3.2,3.3-7.1,5.1-11-.5-.6-1.1-1.3-1.6-1.9-4.4,1.9-8.7,3.9-13.2,5.6-3.1,1.2-6.4,5.6-9.1-1-.6-1.5-4.2-1.8-7.3-3,2.8-3.5,5-6.3,8.1-10.2h-12.9c1.3-2.7,2.2-4.6,3.4-6.9-2.1-.8-4.1-1.5-6.4-2.4.2-2.6.5-5.1.8-7.8,1.8-.4,3.7-.7,6.7-1.4-2.5-2.2-4.3-3.7-7.3-6.4h19c-1.5-3.2-2.4-5.1-3.3-7.2,10.6-6.2,19.2-2.6,27.9,4.2,4.8,3.7,10.7,6,16.8,9.3-.1-5.3-8-13.8-12.6-15.6-12.5-5.1-25.5-7.5-39-8.5-5.7-.4-11.1-5-17.4-8,2.5-2.3,4-3.7,6.4-6-3.7-.4-6.5-.2-8.8-1.2-2.1-.9-3.7-3-5.6-4.6,1.3-1.2,2.6-2.3,3-2.7-1.4-3.4-3.9-6.6-3.2-8.3,1.4-3,4.4-5.7,7.4-7.5,3.4-2.1,7.7-2.8,11.3-4.6.7-.3.8-3.8,0-4.5-2.4-2.3-5.4-4-7.2-5.2.7-5.7,1.3-10.5,1.9-15.3,7.1.9,11.5-2.7,14.6-11.9,1.9,1.6,3.7,3,6.1,4.9.7-2.8,1.3-4.8,1.8-6.9,2.8-.5,5.6-1,9.1-1.7,1,2.1,2.4,5.2,4.3,9.4,1.8-4,3.1-6.9,4.3-9.7,4.4,2.4,8.1,4.4,13.3,7.2,1.3,5.4,4.6,6.8,11.7,3.1,3.5,2.6,7,5.1,10.4,7.8,1.2.9,1.8,2.4,2.9,3.5,1.9,2,3.9,4,5.8,5.9.7-.4,1.3-.8,2-1.2,0,2.6-.3,5.3,0,7.9.3,2,1.3,3.9,2.6,7.6,1.9.4,5.7.4,9,1.9,2.6,1.2,4.4,4.1,7.1,6.8.7-.4,2.4-1.2,5.4-2.6-1.4,5.1-2.5,9-3.6,13,.8.4,1.6.8,2.4,1.2,1.1-1.9,3.1-3.7,3.3-5.7,1-12.2,3-24.6,2.1-36.7-1.1-14.2-9.2-21.5-24.4-20.2-5.2.4-10.6,2.9-15.4,1.8-7.4-1.7-16.9.7-21-9.8-1.2-3.1-6.3-4.7-9.8-7.2.7-1.1,1.7-2.5,2-3-2.8-4.2-5.1-7.6-8.2-12.1,2.7-1.8,5.9-3.9,9.6-6.4-.3-.9-1-2.6-2.1-5.5,6.9.9,13.3,1.6,21.4,2.7-2-2.3-3.1-4.3-4.7-5.1-6.4-2.9-12.8-5.7-19.5-7.8-6.4-2-8.3-6-7.5-12.2.2-1.7-.3-3.4-.4-4.5,2.2-1.6,4.2-3.1,7-5.1,4.8,2.2,10.6,4.9,18.2,8.4-3.8-12.4-18.5-13.6-20.1-25.9,2.8.3,5.1.5,6.3.6,1.7-4.3,3.1-8,4.8-12.3,2.6,1.2,4.3,2,6.5,3,1-1.3,2-2.6,3.6-4.6,3.1,4,6.1,7.8,9.4,12.1,1.4-3.6,2.5-6.5,3.5-9,4.2,2.4,7.9,4,11,6.4,1.1.8,1.1,3.2,1.4,4.9.9,4.5,1.8,9,3.7,13.4,2.8-9.5,10.2-18,2.6-29.9,5.4,1.6,8.1,2.4,11.3,3.3-.7-5.2-1.4-9.9-2.1-15.4,2.6.5,4.3.8,5,.9,2.4-2.9,4.3-7.3,6.3-7.3,3,0,9.2-2.9,8.1,4.5,4-.3,7.2-.6,10.7-.9.5-1.3,1.3-3.2,2.2-5.5,1.6.6,3.2,1.2,4.8,1.9,1.2-1.7,2.3-3.3,3.4-4.9.7,0,1.4-.2,2.1-.3.7,3.4,1.4,6.7,1.7,11.1-5.6,27-11,53-16.1,79.1-2.9,15-5.5,30.2-8.1,45.2-1,5.4-3.5,11.1,1.6,15.9-1,10.5-2.2,21-2.9,31.5-.2,3.6,1.2,7.3,1.4,11,.1,1.8-.1,4.1-1.2,5.4-5.8,7-5.8,7.3,2.2,11,.2,3.1.3,6,.5,9.7-1,1.2-3.8,3.2-4.1,5.4-1.8,15.3-5.7,30.6-1.1,46,6.3-1.7,11.2-3.1,16.7-3.9-1.5,2.5-3.6,4.4-5.7,6.3.4.8,1.3,2.4,2.2,4.1"/>
  <path class="st0" d="M1563.8,288.2c-1.1-2.1-2-3.7-2.4-4.5,2.1-1.9,4.1-3.9,6.2-6.3,4.9-9.8,8.6-19.1,5.8-30.3-1.3-5.1,2.3-11.3,8.2-13.5,2.1-.8,5.2,1.1,8.8,1.9-.1-6.6-2-14.5,8.1-16.3q4.4,4,10.9-1.3c2.8,6.6,5.8,1.4,9.4-.4.7,2.2.8,4.4,1.9,5.6,1.2,1.3,3.4,1.6,5.6,2.6-.3,2.3-.6,5.1-1,7.9,7.4,0,7.4,0,8-10.4,3.8-4.4,6.7-7.7,10.1-11.5,1.1,3,1.9,5.3,3.3,8.9,2.9-4.3,5.2-7.8,7-10.4,4.1.8,7.3,1.5,10.5,2.1,7.5,4,9.3,10.3,6,19.6,8.9.2,9.1-10.5,16.3-12,.4,1.5.8,3.1,1.3,4.7q11.8-2.8,9,8.1c1.7-.4,3.2-.8,4.6-1.2,1.5-.4,3.1-.8,4.6-1.2l-2.9,3c2,1.7,3.9,3.4,5.9,5.1.9-.7,1.9-1.5,2.8-2.2-1.1,2.1-2.2,4.2-3.7,7,2.2.6,4.1,1.1,8.2,2.2-5.9,3.2-10.2,5.5-14.4,7.7.2.6.3,1.2.5,1.8,3.6-.4,7.2-.7,10.7-1.1,4.1,9.6-1.2,16.2-15.7,18.6,1.3,4.8,4.4,9.9,3.5,14.2-.8,4-5.9,7.1-8.7,10.9-4.6,6.3-9.3-.5-14.4.3.2,2.3.3,4.4.5,6.4q-3.2.9-15.8-4.4c-.3,1.5-.6,2.8-1.2,5.3-16.3-13.7-33-24.7-56.8-20,8.4,3.9,15.5,7.4,22.9,10.4,8.5,3.5,10.8,8.3,6.4,16.1-1,1.8-4.3,2.2-7.7,3.8,2.2,2.8,4.7,6,6.9,8.9-1.5,2.9-2.9,5.6-3.8,7.3h-16.7c-.6-1-1.8-3.1-3-5.1-.3.6-.7,1.1-1,1.7-3.5-1.9-7.8-3.1-10.4-5.9-5.2-5.6-10.7-10.2-18.2-12.2-6.9-1.9-9.6-7.5-11.8-13.6-1-2.7-2.7-5.2-4.4-8.2"/>
  <path class="st0" d="M1672.4,116.9c1-2.7,2-5.3,2.9-7.9-2.7-.7-5.2-1.2-9-2.1,3.5-2.2,5.7-3.5,7.7-4.8-.5-5.6.8-12.3-8.8-10.1,1-3,1.7-5.1,2.8-8.3-5.3,2.6-9.3,4.6-14.4,7.1,1.6-5.4,2.6-9,3.6-12.3h-14.1c-2.4,2.5-6,6.4-10.1,10.9-.6-5.5-.9-9.6-1.2-12.1,4.2-3.9,7.9-7.4,13-12.2-5.3-1.2-8.4-1.9-12.1-2.8,4.2-4.3,7.9-8,11.6-11.8-.4-.5-.8-.9-1.2-1.4-1.8.2-3.6.4-5.2.6.4-4.7.7-8.9,1-12-4.5-1.7-7.2-2.7-10.2-3.9-1.8,1.2-4.1,2.8-7,4.8-.5-2.9-.9-4.7-1.1-6.1-3.6.7-6.8,1.3-11,2.1-.8,1.1-2.3,3.4-5,7.2-.4-5-.7-8-.9-10.6-1.7-.9-3.7-1.2-4.4-2.4-2-3.3-3-7.3-5.4-10.4-1.9-2.4-5-4-7.9-5.4-.4-.2-2.4,3.5-3.9,5.3-1,1.2-2.3,2-3.9,3.4-5.7,26.4-11.1,52.5-16.2,78.6-2.9,15-5.5,30.2-8.1,45.2-1,5.4-3.5,11.1,2,15.6,4.4-2.3,8.1-5.3,12.3-6.1,11.8-2.3,19.1,6.2,26.9,12.4,2-.9,5-1.6,5.6-.8,3.8,5.6,8.9,4.7,14.4,3.6-.4-2-.8-4.1-1.6-7.8,4.2,2.1,6.9,4.1,10,4.8,3,.7,6.9,1.2,9.2-.2,4.9-2.9,9-7,13.4-10.6-1.4-4.5-3-9.4-5.1-16,13.5,4.1,21.1-3.2,28.6-9.8-1-2.4-1.9-4.5-2.9-6.9-1.4,0-3,.3-4.5,0-1.5-.4-2.8-1.4-4.2-2.1,1.3-.9,2.4-2.4,3.9-2.8,3.5-.9,7.1-1.3,10.6-1.9ZM1577.2,123.5c0,0,0,0-.2,0,0,0-.2.2-.2.3-5,2.3-6.5.4-6.3-4.2.4-9.4,9.3-18.5,18.1-17.9,0,.3.1.6.2,1,1.3,9.7-6.7,14.5-11.6,20.9Z"/>
  <path class="st0" d="M11.5,372.1c0-3.2,1.6-4.8,4.8-4.8h165.7c1.7,0,3,.4,4.1,1.2,1.1.8,1.6,2,1.6,3.7v.2c0,1.7-.5,2.9-1.6,3.8-1.1.8-2.4,1.3-4.1,1.3H21.1v107.9h131.8c1.7,0,3.1.4,4.3,1.2,1.2.8,1.8,2,1.8,3.7v.2c0,1.7-.6,2.9-1.8,3.7-1.2.8-2.6,1.2-4.3,1.2H21.1v117.2h164.5c1.7,0,3,.4,4.1,1.2,1.1.8,1.6,2,1.6,3.7v.2c0,1.7-.5,2.9-1.6,3.8-1.1.8-2.4,1.3-4.1,1.3H16.3c-3.2,0-4.8-1.7-4.8-5v-245h0ZM254.5,622.4c-9-3.5-16.5-8-22.4-13.4-5.9-5.4-10.3-11.4-13.1-18-2.9-6.6-4.3-13-4.3-19.2s.2-2.1.5-3.1c.4-1,1.1-1.8,2.3-2.2l.5-.2c.4-.1.9-.2,1.6-.2,1.7,0,2.9.6,3.8,1.8.9,1.2,1.4,2.8,1.5,4.8.5,7.1,2.3,13.5,5.6,19.1,3.3,5.6,7.6,10.3,13.1,14.2,5.5,3.9,11.8,6.8,19.1,8.8,7.3,2,15.1,3,23.6,3s12.5-.7,19.6-2.2c7.1-1.5,13.7-4.1,19.8-7.9,6.1-3.8,11.3-8.8,15.4-15.2,4.2-6.4,6.3-14.4,6.3-24.2s-1.7-15.7-5.2-21.8c-3.5-6.1-8.1-11.2-13.8-15.4-5.8-4.2-12.4-7.7-19.7-10.4-7.4-2.7-15-5.1-22.9-7-9-2.1-17.6-4.7-25.5-7.6-8-2.9-14.9-6.5-20.8-10.9-5.9-4.3-10.6-9.7-14-16-3.5-6.3-5.2-13.9-5.2-22.9s1.4-14.4,4.1-21.1c2.7-6.7,6.8-12.6,12.2-17.7,5.4-5.1,12.2-9.2,20.3-12.2,8.1-3,17.5-4.6,28.2-4.6s16.7,1.5,24.5,4.4c7.7,2.9,14.6,6.8,20.7,11.8,6.1,4.9,11,10.6,14.9,17.1,3.9,6.4,6.2,13.2,6.9,20.4v1.4c0,2.3-.6,3.7-1.8,4.3-.5.2-.9.4-1.3.4-.4,0-.7,0-.9,0-1.1,0-2.1-.3-3.2-1-1.1-.7-1.7-1.8-2-3.3-.8-6.7-3-12.8-6.6-18.4-3.6-5.6-8-10.4-13.3-14.5-5.3-4-11.3-7.2-17.9-9.5-6.6-2.3-13.3-3.4-20.1-3.4s-15.4,1.1-22.1,3.4c-6.8,2.3-12.6,5.4-17.4,9.4-4.8,4-8.6,8.8-11.3,14.4-2.7,5.6-4.1,11.8-4.1,18.6s1.9,14.9,5.7,20.4c3.8,5.5,8.6,10,14.3,13.6,5.7,3.6,11.9,6.4,18.5,8.5,6.6,2.1,12.6,3.7,18.1,4.9,22.7,5,40.2,12.8,52.3,23.3,12.1,10.5,18.2,24.3,18.2,41.3s-2.3,20.2-6.9,27.8c-4.6,7.6-10.4,13.7-17.3,18.3s-14.6,8-22.9,10.1c-8.3,2.1-16.3,3.1-23.8,3.1-12.3,0-22.9-1.8-32-5.3h0ZM435.2,622.4c-9-3.5-16.5-8-22.4-13.4-5.9-5.4-10.3-11.4-13.1-18-2.9-6.6-4.3-13-4.3-19.2s.2-2.1.5-3.1c.4-1,1.1-1.8,2.3-2.2l.5-.2c.4-.1.9-.2,1.6-.2,1.7,0,2.9.6,3.8,1.8.9,1.2,1.4,2.8,1.5,4.8.5,7.1,2.3,13.5,5.6,19.1,3.3,5.6,7.6,10.3,13.1,14.2,5.5,3.9,11.8,6.8,19.1,8.8,7.3,2,15.1,3,23.6,3s12.5-.7,19.6-2.2c7.1-1.5,13.7-4.1,19.8-7.9,6.1-3.8,11.3-8.8,15.4-15.2,4.2-6.4,6.3-14.4,6.3-24.2s-1.7-15.7-5.2-21.8c-3.5-6.1-8.1-11.2-13.8-15.4-5.8-4.2-12.4-7.7-19.7-10.4-7.4-2.7-15-5.1-22.9-7-9-2.1-17.6-4.7-25.5-7.6-8-2.9-14.9-6.5-20.8-10.9-5.9-4.3-10.6-9.7-14-16-3.5-6.3-5.2-13.9-5.2-22.9s1.4-14.4,4.1-21.1c2.7-6.7,6.8-12.6,12.2-17.7,5.4-5.1,12.2-9.2,20.3-12.2,8.1-3,17.5-4.6,28.2-4.6s16.7,1.5,24.5,4.4c7.7,2.9,14.6,6.8,20.7,11.8,6.1,4.9,11,10.6,14.9,17.1,3.9,6.4,6.2,13.2,6.9,20.4v1.4c0,2.3-.6,3.7-1.8,4.3-.5.2-.9.4-1.3.4-.4,0-.7,0-.9,0-1.1,0-2.1-.3-3.2-1-1.1-.7-1.7-1.8-2-3.3-.8-6.7-3-12.8-6.6-18.4-3.6-5.6-8-10.4-13.3-14.5-5.3-4-11.3-7.2-17.9-9.5-6.6-2.3-13.3-3.4-20.1-3.4s-15.4,1.1-22.1,3.4c-6.8,2.3-12.6,5.4-17.4,9.4-4.8,4-8.6,8.8-11.3,14.4-2.7,5.6-4.1,11.8-4.1,18.6s1.9,14.9,5.7,20.4c3.8,5.5,8.6,10,14.3,13.6,5.7,3.6,11.9,6.4,18.5,8.5,6.6,2.1,12.6,3.7,18.1,4.9,22.7,5,40.2,12.8,52.3,23.3,12.1,10.5,18.2,24.3,18.2,41.3s-2.3,20.2-6.9,27.8c-4.6,7.6-10.4,13.7-17.3,18.3-7,4.6-14.6,8-22.9,10.1-8.3,2.1-16.3,3.1-23.8,3.1-12.3,0-22.9-1.8-32-5.3h0ZM652.9,418.2c-11.7,4.9-22.1,11.5-31.2,19.9s-16.6,18.2-22.4,29.5c-5.8,11.3-9.5,23.2-10.9,36h205.2c-.5-6.8-2-13.8-4.6-21.1-2.6-7.3-6-14.3-10.4-21.2-4.3-6.8-9.6-13.3-15.6-19.5-6.1-6.1-12.9-11.5-20.4-16.1-7.5-4.6-15.7-8.2-24.5-10.9-8.8-2.7-18.2-4-28.2-4s-25.5,2.4-37.1,7.3h0ZM587.9,513.2v1.4c0,14.1,2.7,27.3,8.1,39.7,5.4,12.4,12.8,23.3,22.1,32.7,9.3,9.3,20.2,16.8,32.6,22.2,12.4,5.5,25.7,8.2,39.7,8.2s17.3-.8,24.5-2.5c7.1-1.7,13.5-3.8,19.2-6.4,5.7-2.6,10.7-5.5,15-8.7,4.3-3.2,8.3-6.2,11.9-9,1.3-1.1,2.7-1.6,4.3-1.6s2,.4,2.7,1.1l.4.4c.7.7,1.1,1.6,1.1,2.7,0,1.8-.7,3.3-2.1,4.5-4.6,3.9-9.7,7.7-15.2,11.3-5.5,3.6-11.4,6.7-17.7,9.3-6.3,2.6-13.1,4.7-20.4,6.3-7.3,1.5-15.2,2.3-23.5,2.3-15.4,0-29.9-3-43.5-8.9-13.6-6-25.5-14-35.7-24.2-10.2-10.2-18.2-22.1-24.2-35.7-6-13.6-8.9-28.1-8.9-43.5s2.9-29.9,8.8-43.7,13.9-25.8,24.1-36.2c10.2-10.4,22.1-18.6,35.6-24.6,13.6-6.1,28-9.1,43.4-9.1s21.2,1.5,31.1,4.5c9.9,3,19,7,27.4,12.1,8.4,5.1,16,11.2,22.8,18.1,6.8,7,12.6,14.4,17.3,22.2,4.8,7.9,8.4,16,11,24.6,2.6,8.5,3.8,16.9,3.8,25.1v.7c0,3.2-1.7,4.8-5,4.8h-210.6ZM863.1,616.6c0,3.7-1.7,5.5-5,5.5h-.2c-3.1,0-4.6-1.8-4.6-5.5v-207.7c0-1.7.4-3,1.1-4.1.7-1.1,1.9-1.6,3.6-1.6h.2c1.7,0,2.9.5,3.6,1.6.7,1.1,1.1,2.4,1.1,4.1l.4,40.9c4.2-8.1,9.3-15.2,15.5-21.3,6.2-6.1,12.9-11.3,20.1-15.5,7.2-4.2,14.6-7.4,22.3-9.6,7.7-2.1,15.1-3.2,22.2-3.2,14.4,0,27.2,2.7,38.5,8s20.8,12.4,28.6,21c7.8,8.6,13.8,18.5,17.9,29.6,4.1,11.1,6.2,22.3,6.2,33.8v124.1c0,3.7-1.5,5.5-4.6,5.5h-.2c-3.3,0-5-1.8-5-5.5v-124.1c0-9.9-1.9-19.7-5.6-29.6-3.8-9.8-9.1-18.7-16.2-26.5-7-7.9-15.6-14.2-25.6-19.1-10.1-4.9-21.5-7.3-34.2-7.3s-16.8,1.7-26.2,5.2c-9.3,3.5-18,8.6-25.9,15.4-7.9,6.8-14.5,15.2-19.8,25.1-5.3,9.9-7.9,21.5-7.9,34.6v126.4h0ZM1104,422.6h41.6c1.3,0,2.4.4,3.2,1.1.8.7,1.3,1.8,1.3,3.4v.2c0,1-.4,1.9-1.3,2.9-.8,1-1.9,1.4-3.2,1.4h-41.6v153.6c0,3,.4,6.1,1.2,9.4.8,3.3,2.1,6.3,4,8.9,1.9,2.7,4.4,4.9,7.6,6.6,3.2,1.7,7.1,2.6,11.9,2.6h7c1.8,0,3.1.2,4,.5s1.5.8,1.9,1.3c.4.5.6,1,.6,1.4,0,.5,0,.8,0,.9v.4c-.1,1.1-.4,1.9-.7,2.6-.4.7-.9,1.2-1.7,1.7-.8.5-1.9.7-3.5.7-2.7,0-5.3,0-7.6,0-2.3,0-4.6-.3-6.7-.6-4.6-.7-8.7-2.1-12.1-4.3-3.5-2.1-6.3-4.8-8.7-8-2.3-3.2-4.1-6.8-5.3-10.8-1.2-4-1.8-8.1-1.8-12.4v-154.3h-29.1c-1.4,0-2.6-.3-3.6-1-1-.7-1.4-1.8-1.4-3.5s.5-2.8,1.4-3.5c1-.7,2.1-1,3.6-1h29.1v-57.7c0-1.7.4-3,1.1-4,.7-1,1.9-1.5,3.6-1.5h.2c1.7,0,2.9.5,3.8,1.5.8,1,1.3,2.4,1.3,4v57.7h0ZM1193.8,408.7c0-3.7,1.7-5.5,5-5.5h.2c3.2,0,4.8,1.8,4.8,5.5v207.7c0,1.7-.4,3-1.2,4.1-.8,1.1-2,1.6-3.7,1.6h-.2c-1.7,0-2.9-.5-3.8-1.6-.8-1.1-1.3-2.4-1.3-4.1v-207.7h0ZM1190.5,346.6c0-2.4,1.2-3.6,3.6-3.6h8.8c2.3,0,3.4,1.3,3.4,3.9v7.9c0,1.5-.3,2.6-1,3.1-.7.5-1.5.8-2.4.8h-8.6c-1.4,0-2.4-.3-2.9-1-.5-.7-.8-1.6-.8-2.9v-8.2h0ZM1468.5,474.2c-5.9-12.6-13.7-23.5-23.5-33-9.8-9.4-20.8-16.8-33.2-22.2-12.4-5.4-25.1-8.1-38.2-8.1s-26.2,2.7-38.6,8.1c-12.4,5.4-23.3,12.8-32.8,22.2-9.5,9.4-17,20.4-22.7,33-5.7,12.6-8.5,26-8.5,40.3s2.8,27.3,8.5,39.7c5.7,12.4,13.2,23.3,22.7,32.7,9.5,9.3,20.4,16.7,32.8,22.1,12.4,5.4,25.2,8.1,38.6,8.1s27.5-2.7,40.1-8.1c12.6-5.4,23.5-12.8,33-22.1,9.4-9.3,16.9-20.2,22.4-32.7,5.5-12.4,8.3-25.7,8.3-39.7s-2.9-27.7-8.8-40.3h0ZM1487.2,616.2c0,1.8-.4,3.2-1.1,4.3s-2,1.6-3.8,1.6h-.2c-1.7,0-2.9-.5-3.7-1.6-.8-1.1-1.2-2.5-1.2-4.3v-56.8c-4.5,9.9-10.4,19-17.5,27.2-7.1,8.3-15.2,15.4-24.2,21.3-9,6-18.7,10.6-29.2,13.9-10.5,3.3-21.4,5-32.7,5s-28.7-3-42.2-8.9c-13.5-6-25.5-14-35.9-24.2-10.4-10.2-18.8-22.1-25-35.8-6.3-13.7-9.4-28.2-9.4-43.6s3.1-30.1,9.4-43.8c6.3-13.8,14.6-25.8,25-36.1,10.4-10.3,22.4-18.5,35.9-24.5,13.5-6,27.6-9,42.2-9s22.1,1.7,32.6,5.1c10.5,3.4,20.3,8.1,29.3,14.1,9,6,17.1,13.2,24.2,21.5,7.1,8.3,13,17.5,17.5,27.5v-60.4c0-1.7.4-3.1,1.2-4.2.8-1.1,2-1.7,3.7-1.7h.2c1.8,0,3,.6,3.8,1.7.7,1.1,1.1,2.5,1.1,4.2v207.3h0ZM1537.7,345.5c0-1.7.4-3.1,1.2-4.3.8-1.2,2-1.8,3.7-1.8h.2c1.7,0,2.9.6,3.7,1.8.8,1.2,1.2,2.6,1.2,4.3v270.7c0,1.7-.4,3.1-1.2,4.2-.8,1.1-2,1.7-3.7,1.7h-.2c-1.7,0-2.9-.6-3.7-1.7-.8-1.1-1.2-2.5-1.2-4.2v-270.7h0Z"/>
  <path class="st0" d="M1700.9,372.1c0-3.2,1.6-4.8,4.8-4.8h165.7c1.7,0,3,.4,4.1,1.2,1.1.8,1.6,2,1.6,3.7v.2c0,1.7-.5,2.9-1.6,3.8-1.1.8-2.4,1.3-4.1,1.3h-160.9v107.9h131.8c1.7,0,3.1.4,4.3,1.2,1.2.8,1.8,2,1.8,3.7v.2c0,1.7-.6,2.9-1.8,3.7-1.2.8-2.6,1.2-4.3,1.2h-131.8v117.2h164.5c1.7,0,3,.4,4.1,1.2,1.1.8,1.6,2,1.6,3.7v.2c0,1.7-.5,2.9-1.6,3.8-1.1.8-2.4,1.3-4.1,1.3h-169.3c-3.2,0-4.8-1.7-4.8-5v-245h0ZM1933.9,616.6c0,3.7-1.7,5.5-5,5.5h-.2c-3.1,0-4.6-1.8-4.6-5.5v-207.7c0-1.7.4-3,1.1-4.1.7-1.1,1.9-1.6,3.6-1.6h.2c1.7,0,2.9.5,3.6,1.6.7,1.1,1.1,2.4,1.1,4.1l.4,40.9c4.2-8.1,9.3-15.2,15.5-21.3,6.2-6.1,12.9-11.3,20.1-15.5,7.2-4.2,14.6-7.4,22.3-9.6,7.7-2.1,15.1-3.2,22.2-3.2,14.4,0,27.2,2.7,38.5,8,11.3,5.4,20.8,12.4,28.6,21,7.8,8.6,13.8,18.5,17.9,29.6,4.1,11.1,6.2,22.3,6.2,33.8v124.1c0,3.7-1.5,5.5-4.6,5.5h-.2c-3.3,0-5-1.8-5-5.5v-124.1c0-9.9-1.9-19.7-5.6-29.6-3.8-9.8-9.1-18.7-16.2-26.5-7-7.9-15.6-14.2-25.6-19.1-10.1-4.9-21.5-7.3-34.2-7.3s-16.8,1.7-26.2,5.2c-9.3,3.5-18,8.6-25.9,15.4-7.9,6.8-14.5,15.2-19.8,25.1-5.3,9.9-7.9,21.5-7.9,34.6v126.4h0ZM2220.4,418.2c-11.7,4.9-22.1,11.5-31.2,19.9s-16.6,18.2-22.4,29.5c-5.8,11.3-9.5,23.2-10.9,36h205.2c-.5-6.8-2-13.8-4.6-21.1-2.6-7.3-6-14.3-10.4-21.2-4.3-6.8-9.6-13.3-15.6-19.5-6.1-6.1-12.9-11.5-20.4-16.1-7.5-4.6-15.7-8.2-24.5-10.9-8.8-2.7-18.2-4-28.2-4s-25.5,2.4-37.1,7.3h0ZM2155.3,513.2v1.4c0,14.1,2.7,27.3,8.1,39.7,5.4,12.4,12.8,23.3,22.1,32.7,9.3,9.3,20.2,16.8,32.6,22.2,12.4,5.5,25.7,8.2,39.7,8.2s17.3-.8,24.5-2.5c7.1-1.7,13.5-3.8,19.2-6.4,5.7-2.6,10.7-5.5,15-8.7,4.3-3.2,8.3-6.2,11.9-9,1.3-1.1,2.7-1.6,4.3-1.6s2,.4,2.7,1.1l.4.4c.7.7,1.1,1.6,1.1,2.7,0,1.8-.7,3.3-2.1,4.5-4.6,3.9-9.7,7.7-15.2,11.3-5.5,3.6-11.4,6.7-17.7,9.3-6.3,2.6-13.1,4.7-20.4,6.3-7.3,1.5-15.2,2.3-23.5,2.3-15.4,0-29.9-3-43.5-8.9-13.6-6-25.5-14-35.7-24.2-10.2-10.2-18.2-22.1-24.2-35.7-6-13.6-8.9-28.1-8.9-43.5s2.9-29.9,8.8-43.7,13.9-25.8,24.1-36.2c10.2-10.4,22.1-18.6,35.6-24.6,13.6-6.1,28-9.1,43.4-9.1s21.2,1.5,31.1,4.5c9.9,3,19,7,27.4,12.1,8.4,5.1,16,11.2,22.8,18.1,6.8,7,12.6,14.4,17.3,22.2,4.8,7.9,8.4,16,11,24.6,2.6,8.5,3.8,16.9,3.8,25.1v.7c0,3.2-1.7,4.8-5,4.8h-210.6ZM2420.4,408.7c0-1.7.4-3,1.2-4,.8-1,2-1.5,3.7-1.5h.2c1.7,0,2.9.5,3.6,1.5.7,1,1.1,2.4,1.1,4v45.5c3.5-8.5,8.2-15.7,14.3-21.8,6.1-6.1,12.8-11.1,20.1-15s14.9-6.8,22.6-8.7c7.7-1.8,15.1-2.8,22-2.8s13.3,1,20.3,3.1c7,2.1,13.3,4.6,19,7.4,5.7,2.9,10.4,5.8,14.1,8.9,3.7,3.1,5.5,5.7,5.5,7.9s-.2,1.7-.7,2.1l-.2.2c-.4.5-.9.9-1.5,1.3-.7.4-1.5.6-2.4.6s-2.6-.5-3.8-1.6c-2.9-2.4-6-4.8-9.6-7.1-3.5-2.4-7.4-4.6-11.5-6.5-4.2-2-8.7-3.5-13.5-4.7-4.8-1.2-9.9-1.8-15.3-1.8-8.2,0-17,1.5-26.3,4.5-9.3,3-17.9,7.8-25.7,14.5-7.9,6.7-14.4,15.4-19.6,26.3s-7.8,24.2-7.8,39.9v115.4c0,1.7-.4,3-1.2,4.1-.8,1.1-2,1.6-3.7,1.6h-.2c-1.7,0-2.9-.5-3.7-1.6-.8-1.1-1.2-2.4-1.2-4.1v-207.7h0Z"/>
  <path class="st0" d="M2800,502.8c-1.7-12.4-5.5-24.1-11.6-35.3-6.1-11.1-13.7-20.9-22.9-29.3-9.2-8.4-19.6-15.1-31.3-20-11.7-4.9-24-7.4-36.9-7.4s-28.5,2.7-41.1,8.1c-12.6,5.4-23.5,12.8-32.7,22.1-9.2,9.3-16.4,20.1-21.6,32.4-5.2,12.3-7.9,25.3-7.9,39s2.9,30.6,8.8,43.2c5.8,12.6,13.6,23.2,23.2,31.8s20.7,15.1,33,19.6c12.4,4.5,25.1,6.7,38.2,6.7s26.9-2.4,38.8-7.2c12-4.8,22.5-11.4,31.5-19.6,9-8.3,16.4-18,22.1-29.1,5.7-11.1,9.1-22.9,10.3-35.5v-19.5h0ZM2810.1,579.4c0,16.3-2.4,31.1-7.1,44.5-4.8,13.3-11.1,24.9-18.9,34.6-7.9,9.8-16.9,17.6-27.1,23.4-10.2,5.8-20.7,9.5-31.7,10.9-5.1.7-10.6,1.1-16.4,1.1s-10.4-.4-17.2-1.2c-6.8-.8-13.4-1.9-19.6-3.3-6.3-1.4-11.6-3.2-16.1-5.3-4.5-2.1-6.7-4.4-6.7-7.1s0-1.1.3-1.5c.2-.4.3-.7.4-.8l.4-.5c.1-.1.5-.5,1.1-1.1.6-.6,1.5-.9,2.9-.9s2.4.4,3.9,1.1c6.9,3.5,14.8,6,23.7,7.8,8.9,1.7,17.8,2.6,26.9,2.6s10.6-.3,15.6-.9c5.1-.6,9.9-1.5,14.4-2.9,8.2-2.4,16-6.6,23.5-12.6,7.4-6,14-13.4,19.6-22.1,5.7-8.8,10.2-18.7,13.6-29.9,3.4-11.2,5.1-23.2,5.1-36.1l-.4-21.1c-4.3,9.8-9.9,18.7-16.7,26.7-6.8,8-14.7,14.9-23.5,20.6-8.8,5.7-18.5,10.1-29,13.2-10.5,3.1-21.7,4.6-33.5,4.6s-28.6-2.6-42.2-7.9c-13.6-5.2-25.7-12.7-36.3-22.3-10.5-9.6-19-21.3-25.3-34.9-6.3-13.6-9.5-28.9-9.5-45.8s3-29.3,9.1-42.8c6.1-13.5,14.3-25.4,24.6-35.5,10.4-10.2,22.4-18.2,36.1-24.2,13.7-6,28.2-8.9,43.4-8.9s21.6,1.7,32,5c10.4,3.3,20,8,28.9,13.9,8.9,6,17,13,24.1,21.2,7.1,8.2,13,17.1,17.5,26.9v-59.1c0-1.7.4-3,1.3-4.1.9-1.1,2.2-1.6,3.8-1.6s3.2.5,3.9,1.5c.7,1,1.1,2.4,1.1,4.2v170.6h0ZM2904.2,690.2c-.7,1.7-1.5,2.7-2.5,3.1-1,.4-1.6.6-2,.6-1.1,0-2.1-.4-3.2-1.1s-1.6-1.9-1.6-3.6.2-2,.7-3l28-68.2-87.3-207.9c-.4-.7-.5-1.4-.5-2.1,0-1.5.6-2.7,1.8-3.6,1.2-.8,2.3-1.3,3.4-1.3s1.3.2,2.1.5c.8.4,1.5,1.3,2.1,2.9l83.4,199.5,83.4-199c.6-1.5,1.3-2.6,2.1-3.1.8-.5,1.5-.8,2.2-.8,1.4,0,2.6.4,3.7,1.3,1,.8,1.5,2,1.5,3.4s-.2,1.8-.5,2.9l-116.8,279.5h0Z"/>
  <polygon class="st0" points="10 739.4 10 842 65.8 842 65.8 830.8 22.9 830.8 22.9 796.3 65.8 796.3 65.8 785.1 22.9 785.1 22.9 750.6 65.8 750.6 65.8 739.4 10 739.4 10 739.4"/>
  <path class="st0" d="M191.6,797.1c3.8,3.8,5.8,8.7,5.8,14.5s-2,10.7-5.9,14.6-8.5,5.9-13.8,5.9-9.7-1.9-13.5-5.7c-3.5-3.4-5.6-8.9-6.3-16.3l-12.4,4.5c1.1,7.8,4.2,14.1,9.1,19,6.3,6.4,14,9.6,23.2,9.6s16.7-3.1,23-9.4c6.2-6.2,9.4-13.7,9.4-22.2s-3.2-16-9.5-22.2c-5.5-5.5-12.4-9.6-20.5-12.3-4.3-2-7.7-4.2-10.1-6.6-2.4-2.5-3.6-5.5-3.6-9s1.2-6.5,3.5-8.8,4.9-3.5,7.9-3.5,5.7,1.2,8,3.6c1.1,1.1,2.4,3.6,3.8,7.5l11.5-4.5c-1.4-4.5-3.4-7.9-5.9-10.4-4.8-4.8-10.7-7.2-17.5-7.2s-12.7,2.3-17.3,7c-4.6,4.7-7,10.1-7,16.3s2.2,11.7,6.7,16.2c4.5,4.5,10.4,7.9,17.8,10.3,5.2,2.2,9.8,5.2,13.7,9.1h0ZM331.7,797.1c3.8,3.8,5.8,8.7,5.8,14.5s-2,10.7-5.9,14.6-8.5,5.9-13.8,5.9-9.7-1.9-13.5-5.7c-3.5-3.4-5.6-8.9-6.3-16.3l-12.4,4.5c1.1,7.8,4.2,14.1,9.1,19,6.3,6.4,14,9.6,23.2,9.6s16.7-3.1,23-9.4c6.2-6.2,9.4-13.7,9.4-22.2s-3.2-16-9.5-22.2c-5.5-5.5-12.4-9.6-20.5-12.3-4.3-2-7.7-4.2-10.1-6.6-2.4-2.5-3.6-5.5-3.6-9s1.2-6.5,3.5-8.8c2.3-2.3,4.9-3.5,7.9-3.5s5.7,1.2,8,3.6c1.1,1.1,2.4,3.6,3.8,7.5l11.5-4.5c-1.4-4.5-3.4-7.9-5.9-10.4-4.8-4.8-10.7-7.2-17.5-7.2s-12.7,2.3-17.3,7c-4.6,4.7-7,10.1-7,16.3s2.2,11.7,6.7,16.2c4.5,4.5,10.4,7.9,17.8,10.3,5.2,2.2,9.8,5.2,13.7,9.1h0ZM429.6,739.4v102.6h55.8v-11.2h-42.9v-34.5h42.9v-11.2h-42.9v-34.5h42.9v-11.2h-55.8ZM457.1,710.9l-24.1,19.8h16.4l7.8-6.2,8.3,6.2h16.5l-25-19.8h0ZM568.8,739.4v102.6h12.9v-79.9l57,79.9h14.3v-102.6h-12.9v82l-58.5-82h-12.8ZM786.8,831.8c-10.9,0-20.4-4-28.3-11.9-8-7.9-11.9-17.7-11.9-29.3s4-21.2,11.9-29.2c8-8,17.4-11.9,28.3-11.9s19.7,4.2,29.2,12.5l9-8c-11.5-10.6-24.3-15.8-38.1-15.8s-27.5,5.2-37.8,15.5c-10.3,10.4-15.4,22.7-15.4,36.9s5.1,26.7,15.4,37c10.3,10.3,22.9,15.4,37.8,15.4s26.6-5.3,38.1-15.8l-9-8c-9.4,8.3-19.1,12.5-29.2,12.5h0ZM905.7,739.4v102.6h12.9v-102.6h-12.9ZM1028.2,788.2l9.9-27.2,9.8,27.2h-19.7ZM1032.5,739.4l-37.6,102.6h13.5l15.8-42.6h27.9l15.5,42.6h13.4l-37.1-102.6h-11.2Z"/>
  <path class="st0" d="M1203.1,797.1c3.8,3.8,5.8,8.7,5.8,14.5s-2,10.7-5.9,14.6-8.5,5.9-13.8,5.9-9.7-1.9-13.5-5.7c-3.5-3.4-5.6-8.9-6.3-16.3l-12.4,4.5c1.1,7.8,4.2,14.1,9.1,19,6.3,6.4,14,9.6,23.2,9.6s16.7-3.1,23-9.4c6.2-6.2,9.4-13.7,9.4-22.2s-3.2-16-9.5-22.2c-5.5-5.5-12.4-9.6-20.5-12.3-4.3-2-7.7-4.2-10.1-6.6-2.4-2.5-3.6-5.5-3.6-9s1.2-6.5,3.5-8.8c2.3-2.3,4.9-3.5,7.9-3.5s5.7,1.2,8,3.6c1.1,1.1,2.4,3.6,3.8,7.5l11.5-4.5c-1.4-4.5-3.4-7.9-5.9-10.4-4.8-4.8-10.7-7.2-17.5-7.2s-12.7,2.3-17.3,7c-4.6,4.7-7,10.1-7,16.3s2.2,11.7,6.7,16.2c4.5,4.5,10.4,7.9,17.8,10.3,5.2,2.2,9.8,5.2,13.7,9.1h0ZM1438.2,818.4l-27.9-79h-13.4l36.8,102.6h9l36.9-102.6h-13.5l-27.8,79h0ZM1555.7,739.4v102.6h12.9v-102.6h-12.9ZM1665.8,830.8v-46.6h18.7c5.9,0,11.1,2.2,15.6,6.7,4.4,4.5,6.7,10,6.7,16.6s-2.2,12.1-6.7,16.6c-4.4,4.4-9.6,6.7-15.6,6.7h-18.7ZM1685.4,750.5c2.8,0,5.2,1.1,7.4,3.3,2.2,2.2,3.3,4.9,3.3,8.3s-1,6.2-3.1,8.2c-1.5,1.6-3.7,2.5-6.5,2.8h-20.7v-22.5h19.6ZM1702.5,777.8c4.4-4.4,6.6-9.6,6.6-15.8s-2.3-11.4-6.8-15.9c-4.5-4.5-10.1-6.8-16.8-6.8h-32.6v102.6h35.4c8.5-1.1,15.5-4.5,21.1-10.1,6.9-6.9,10.3-15,10.3-24.3s-3.3-17.4-10-24.1c-3.3-3.4-5.8-5.3-7.3-5.6h0ZM1824.7,750.6c6,0,11.2,2.2,15.7,6.6,4.5,4.4,6.7,9.9,6.7,16.5s-2.2,12.2-6.7,16.6c-4.5,4.4-9.7,6.7-15.7,6.7h-12.7v-46.5h12.7ZM1845.6,842h14.9l-23-35.6c3.5-.9,7.6-3.6,12.1-8.2,6.9-6.9,10.3-15,10.3-24.4s-3.4-17.3-10.1-24c-5.8-5.8-12.9-9.3-21.5-10.4h-29.4v102.6h12.9v-33.6h12l21.6,33.6h0ZM1966.1,788.2l9.9-27.2,9.8,27.2h-19.7ZM1970.5,739.4l-37.6,102.6h13.5l15.8-42.6h27.9l15.5,42.6h13.4l-37.1-102.6h-11.2ZM2145.1,831.8c-10.9,0-20.4-4-28.3-11.9-8-7.9-11.9-17.7-11.9-29.3s4-21.2,11.9-29.2c8-8,17.4-11.9,28.3-11.9s19.7,4.2,29.2,12.5l9-8c-11.5-10.6-24.3-15.8-38.1-15.8s-27.5,5.2-37.8,15.5c-10.3,10.4-15.4,22.7-15.4,36.9s5.1,26.7,15.4,37c10.3,10.3,22.9,15.4,37.8,15.4s26.6-5.3,38.1-15.8l-9-8c-9.4,8.3-19.1,12.5-29.2,12.5h0ZM2264.1,739.4v102.6h12.9v-102.6h-12.9ZM2411,738c-14.9,0-27.5,5.2-37.8,15.5-10.3,10.4-15.5,22.7-15.5,37s5.2,26.8,15.5,37.1,22.9,15.5,37.8,15.5,27.6-5.2,37.9-15.5,15.5-22.7,15.5-37.1-5.2-26.6-15.5-37c-10.3-10.4-23-15.5-37.9-15.5h0ZM2439.4,761.2c8,8,12,17.8,12,29.3s-4,21.4-12,29.4-17.5,12-28.4,12-20.4-4-28.4-12-12-17.8-12-29.4,4-21.3,12-29.3c8-8,17.4-12,28.4-12s20.5,4,28.4,12h0ZM2544.2,739.4v102.6h12.9v-79.9l57,79.9h14.3v-102.6h-12.9v82l-58.5-82h-12.8ZM2736.9,788.2l9.9-27.2,9.8,27.2h-19.7ZM2741.2,739.4l-37.6,102.6h13.5l15.8-42.6h27.9l15.5,42.6h13.4l-37.1-102.6h-11.2ZM2866.1,739.4v102.6h12.9v-102.6h-12.9Z"/>
  <path class="st0" d="M3005.5,797.1c3.8,3.8,5.8,8.7,5.8,14.5s-2,10.7-5.9,14.6-8.5,5.9-13.8,5.9-9.7-1.9-13.5-5.7c-3.5-3.4-5.6-8.9-6.3-16.3l-12.4,4.5c1.1,7.8,4.2,14.1,9.1,19,6.3,6.4,14,9.6,23.2,9.6s16.7-3.1,23-9.4c6.2-6.2,9.4-13.7,9.4-22.2s-3.2-16-9.5-22.2c-5.5-5.5-12.4-9.6-20.5-12.3-4.3-2-7.7-4.2-10.1-6.6-2.4-2.5-3.6-5.5-3.6-9s1.2-6.5,3.5-8.8c2.3-2.3,4.9-3.5,7.9-3.5s5.7,1.2,8,3.6c1.1,1.1,2.4,3.6,3.8,7.5l11.5-4.5c-1.4-4.5-3.4-7.9-5.9-10.4-4.8-4.8-10.7-7.2-17.5-7.2s-12.7,2.3-17.3,7c-4.6,4.7-7,10.1-7,16.3s2.2,11.7,6.7,16.2c4.5,4.5,10.4,7.9,17.8,10.3,5.2,2.2,9.8,5.2,13.7,9.1h0Z"/>
</svg>